<?xml version="1.0" standalone="no"?>
<!DOCTYPE svg PUBLIC "-//W3C//DTD SVG 20010904//EN"
 "http://www.w3.org/TR/2001/REC-SVG-20010904/DTD/svg10.dtd">
<svg version="1.0" xmlns="http://www.w3.org/2000/svg"
 width="700.000000pt" height="700.000000pt" viewBox="0 0 700.000000 700.000000"
 preserveAspectRatio="xMidYMid meet">
<metadata>
Created by potrace 1.11, written by Peter Selinger 2001-2013
</metadata>
<g transform="translate(0.000000,700.000000) scale(0.100000,-0.100000)"
fill="#000000" stroke="none">
<path d="M628 5415 c-137 -37 -226 -161 -216 -303 7 -104 66 -190 163 -240 67
-34 178 -37 243 -5 l42 21 50 -56 c28 -31 61 -72 74 -92 26 -38 46 -97 29 -87
-5 3 -25 2 -44 -3 -19 -5 -47 -11 -64 -13 -50 -8 -182 -55 -258 -93 -229 -115
-425 -314 -530 -537 -46 -98 -84 -216 -101 -312 -20 -116 -13 -346 14 -455
101 -411 381 -717 780 -850 52 -17 97 -34 100 -38 13 -17 131 -93 195 -124 80
-40 215 -91 215 -81 0 4 5 2 11 -4 8 -8 11 -106 10 -317 0 -341 -7 -308 64
-308 14 0 31 0 39 1 12 1 15 43 15 268 0 148 0 279 0 293 l1 25 175 0 175 0 2
-294 3 -295 48 -1 c27 0 52 4 55 10 4 5 7 145 7 310 l0 300 54 17 c30 10 56
16 59 14 2 -3 4 -124 4 -269 l-1 -264 58 0 59 0 0 264 c0 145 2 266 5 269 3 3
24 -7 47 -21 60 -38 158 -82 234 -106 l66 -20 0 -194 0 -194 58 3 57 3 0 -119
0 -118 57 0 58 0 1 48 c0 26 1 157 2 291 l2 244 103 3 c57 2 107 6 111 9 15 9
17 -25 16 -312 l0 -283 57 0 58 0 0 309 0 309 60 20 60 21 0 -155 0 -154 58 0
58 0 -1 177 0 177 58 35 c83 51 174 120 234 180 29 28 54 51 55 51 2 0 3 -139
3 -310 l0 -310 57 0 58 0 0 350 c0 325 1 351 18 356 48 15 104 42 170 82 65
39 76 42 115 36 299 -46 609 118 737 391 16 33 32 72 35 87 5 18 24 38 56 59
63 40 133 119 165 188 35 73 37 83 40 195 3 84 -1 108 -21 161 -31 85 -48 110
-118 179 -62 61 -144 106 -228 123 -68 14 -176 7 -242 -16 -57 -20 -57 -20
-135 0 -42 11 -103 22 -135 24 -55 4 -63 8 -119 60 -212 196 -523 283 -806
226 l-84 -17 -81 27 c-51 17 -114 48 -167 84 -216 146 -423 207 -685 200 -123
-3 -163 -8 -295 -40 -8 -2 -48 -15 -87 -30 l-73 -26 -72 44 c-128 77 -233 118
-393 152 l-100 21 3 42 c1 24 11 64 20 90 l18 47 64 0 c91 1 140 18 199 71
120 108 135 270 35 401 -114 150 -356 138 -465 -22 -74 -109 -62 -266 27 -357
l36 -37 -21 -57 c-12 -31 -24 -83 -28 -115 -6 -64 -27 -80 -38 -29 -9 39 -75
141 -140 213 l-52 59 20 40 c41 83 32 205 -21 283 -71 102 -197 151 -314 120z"/>
</g>
</svg>
